<svg width="26" height="27" viewBox="0 0 26 27" fill="none" xmlns="http://www.w3.org/2000/svg">
<g filter="url(#filter0_dd_0_587)">
<path fill-rule="evenodd" clip-rule="evenodd" d="M13 25C19.6274 25 25 19.6274 25 13C25 6.37258 19.6274 1 13 1C6.37258 1 1 6.37258 1 13C1 19.6274 6.37258 25 13 25Z" fill="#2196F3"/>
<path d="M24.7 13C24.7 19.4617 19.4617 24.7 13 24.7C6.53827 24.7 1.3 19.4617 1.3 13C1.3 6.53827 6.53827 1.3 13 1.3C19.4617 1.3 24.7 6.53827 24.7 13Z" stroke="url(#paint0_linear_0_587)" stroke-width="0.6"/>
<path d="M24.7 13C24.7 19.4617 19.4617 24.7 13 24.7C6.53827 24.7 1.3 19.4617 1.3 13C1.3 6.53827 6.53827 1.3 13 1.3C19.4617 1.3 24.7 6.53827 24.7 13Z" stroke="url(#paint1_linear_0_587)" stroke-width="0.6"/>
</g>
<defs>
<filter id="filter0_dd_0_587" x="0" y="0" width="26" height="27" filterUnits="userSpaceOnUse" color-interpolation-filters="sRGB">
<feFlood flood-opacity="0" result="BackgroundImageFix"/>
<feColorMatrix in="SourceAlpha" type="matrix" values="0 0 0 0 0 0 0 0 0 0 0 0 0 0 0 0 0 0 127 0" result="hardAlpha"/>
<feOffset dy="1"/>
<feGaussianBlur stdDeviation="0.5"/>
<feColorMatrix type="matrix" values="0 0 0 0 0 0 0 0 0 0 0 0 0 0 0 0 0 0 0.237602 0"/>
<feBlend mode="normal" in2="BackgroundImageFix" result="effect1_dropShadow_0_587"/>
<feColorMatrix in="SourceAlpha" type="matrix" values="0 0 0 0 0 0 0 0 0 0 0 0 0 0 0 0 0 0 127 0" result="hardAlpha"/>
<feOffset/>
<feGaussianBlur stdDeviation="0.5"/>
<feColorMatrix type="matrix" values="0 0 0 0 0 0 0 0 0 0 0 0 0 0 0 0 0 0 0.12 0"/>
<feBlend mode="normal" in2="effect1_dropShadow_0_587" result="effect2_dropShadow_0_587"/>
<feBlend mode="normal" in="SourceGraphic" in2="effect2_dropShadow_0_587" result="shape"/>
</filter>
<linearGradient id="paint0_linear_0_587" x1="1.11743" y1="1" x2="1.11743" y2="24.7651" gradientUnits="userSpaceOnUse">
<stop stop-opacity="0.01"/>
<stop offset="0.8" stop-opacity="0.02"/>
<stop offset="1" stop-opacity="0.04"/>
</linearGradient>
<linearGradient id="paint1_linear_0_587" x1="1" y1="1" x2="1" y2="25" gradientUnits="userSpaceOnUse">
<stop stop-color="white" stop-opacity="0.12"/>
<stop offset="0.2" stop-color="white" stop-opacity="0.06"/>
<stop offset="1" stop-color="white" stop-opacity="0.01"/>
</linearGradient>
</defs>
</svg>
